<svg xmlns="http://www.w3.org/2000/svg" xmlns:xlink="http://www.w3.org/1999/xlink" viewBox="0 0 841.89 595.28" xmlns:v="https://vecta.io/nano"><style><![CDATA[.j{fill:#063}.k{fill:#3aaa35}.l{stroke-miterlimit:10}.m{fill:#ca9e67}.n{stroke:#936037}.o{stroke:#3aaa35}.p{stroke:#063}.q{stroke-width:1.171}.r{stroke-width:.127}.s{stroke-width:.178}.t{fill:#f3967b}.u{stroke:#000}.v{stroke-width:1.355}.w{fill:#9d9d9c}.x{stroke-width:2.007}.y{stroke-width:.892}]]></style><linearGradient id="A" gradientUnits="userSpaceOnUse" x1="420.945" y1="433.576" x2="420.945" y2="-114.972"><stop offset="0" stop-color="#878787"/><stop offset=".936" stop-color="#575756"/></linearGradient><path d="M0 0h841.89v437.9H0z" fill="url(#A)"/><g fill="#b17f4a" class="l u x"><path d="M0 437.9h29.03v157.92H0z"/><path d="M29.03 437.9h29.03v157.92H29.03z"/><path d="M58.06 437.9h29.03v157.92H58.06z"/><path d="M87.09 437.9h29.03v157.92H87.09z"/><use xlink:href="#I"/><use xlink:href="#I" x="29.03"/><use xlink:href="#I" x="58.06"/><use xlink:href="#I" x="87.09"/><use xlink:href="#I" x="116.13"/><use xlink:href="#I" x="145.16"/><use xlink:href="#I" x="174.19"/><use xlink:href="#I" x="203.22"/><use xlink:href="#I" x="232.25"/><path d="M377.4 437.9h29.03v157.92H377.4z"/><use xlink:href="#I" x="290.31"/><use xlink:href="#I" x="319.34"/><use xlink:href="#I" x="348.37"/><use xlink:href="#I" x="377.4"/><use xlink:href="#I" x="406.43"/><use xlink:href="#I" x="435.46"/><use xlink:href="#I" x="464.49"/><use xlink:href="#I" x="493.52"/><use xlink:href="#I" x="522.56"/><use xlink:href="#I" x="551.59"/><use xlink:href="#I" x="580.62"/><use xlink:href="#I" x="609.65"/><path d="M754.8 437.9h29.03v157.92H754.8z"/><use xlink:href="#I" x="667.71"/><use xlink:href="#I" x="696.74"/></g><path d="M0 55.43s272.41 34.85 435.46 34.85 406.43-34.85 406.43-34.85v66.04s-208.1 39.44-406.43 39.44S0 120.55 0 120.55V55.43z" class="k l u x"/><path d="M274.08 113.75c-.19 1.75-.94 2.97-2.24 3.68-.58.31-2.33.6-5.27.87-3.9.37-7.19.41-9.87.11-1.23-.13-2.69-.38-4.4-.74-.7 6.33 1.36 9.76 6.18 10.29 1.33.15 2.57-.1 3.73-.74.58-.31 1.64-1.1 3.19-2.38.56-.46 1.12-.67 1.67-.61.71.08 1.28.41 1.74.99s.64 1.26.55 2.04c-.07.64-.38 1.2-.92 1.68-3.23 2.84-6.79 4.04-10.67 3.62-8.02-.88-11.52-5.97-10.5-15.25.53-4.78 2.26-8.77 5.19-11.97 3.34-3.62 7.15-5.2 11.43-4.73 3.34.37 5.97 1.79 7.89 4.26 1.91 2.48 2.68 5.44 2.3 8.88zm-5.04-.25c.16-2.34-.25-4.26-1.22-5.74s-2.29-2.32-3.97-2.5c-2.18-.24-4.19.33-6.02 1.71-1.89 1.39-3.41 3.48-4.56 6.28 1.18.27 2.44.47 3.78.62 3.25.35 7.25.23 11.99-.37zm34.57 14.58c-.17 1.75-2.17 3.81-5.99 6.2-2.7 1.67-6.08 2.29-10.14 1.89-4.03-.4-7.08-2.05-9.13-4.94-2.1-2.94-2.91-6.77-2.44-11.5.61-6.1 2.45-10.71 5.51-13.85 3.06-3.13 6.97-4.46 11.73-3.98 3.53.35 6.34 1.43 8.43 3.24 1.99 1.69 2.88 3.57 2.67 5.64-.17 1.7-1.04 2.47-2.62 2.31-.74-.07-1.25-.39-1.53-.94-.23-.77-.6-1.74-1.11-2.91-1.06-1.46-3.16-2.35-6.3-2.67-3.28-.33-5.93.65-7.97 2.94s-3.28 5.73-3.74 10.32c-.73 7.26 1.8 11.18 7.58 11.76 3.34.33 6.32-.56 8.93-2.7.02-.01.61-.72 1.79-2.11.7-.85 1.43-1.23 2.2-1.15.6.06 1.13.35 1.57.86.42.5.61 1.03.56 1.59zm31.94-5.29c-.43 4.95-2.23 8.76-5.38 11.44s-7.14 3.81-11.97 3.39c-4-.35-7.02-1.99-9.05-4.93-2.03-2.93-2.83-6.83-2.41-11.69.45-5.11 2.17-8.96 5.16-11.55 2.93-2.54 6.79-3.6 11.57-3.18 4 .35 7.12 2.04 9.35 5.07 2.22 3.02 3.14 6.84 2.73 11.45zm-5.02-.39c.3-3.38-.29-6.1-1.76-8.15s-3.63-3.2-6.47-3.45c-6.34-.56-9.85 2.98-10.52 10.6-.31 3.52.14 6.28 1.36 8.29 1.21 2.01 3.11 3.13 5.68 3.36 3.33.29 6.04-.5 8.12-2.37 2.07-1.87 3.27-4.63 3.59-8.28zm50.38 5.59c-.27 4.31-1.78 7.68-4.51 10.08-2.73 2.41-6.26 3.47-10.57 3.2-2.41-.15-4.73-.83-6.95-2.04-.63 3.92-1.09 6.33-1.4 7.22-.52 1.46-1.34 2.15-2.45 2.08-.71-.05-1.3-.3-1.76-.77s-.67-1.02-.63-1.66c-.01.1.2-.96.61-3.19a125.71 125.71 0 0 0 1.32-8.47c.55-4.36.98-9.09 1.31-14.18l.17-3.48.1-2.37c.14-2.24 1-3.31 2.56-3.21 1.63.1 2.43.93 2.38 2.49l-.05 1.54c2.15-1.83 4.83-2.64 8.05-2.43 3.83.24 6.81 1.72 8.96 4.43 2.18 2.75 3.14 6.34 2.86 10.76zm-5.03-.32c.2-3.08-.37-5.52-1.69-7.32-1.32-1.79-3.26-2.77-5.8-2.93-3.98-.25-6.51.85-7.6 3.3l-.16 2.5a219.72 219.72 0 0 1-1.03 11.51c2.11 1.18 4.28 1.85 6.52 1.99 2.92.19 5.22-.51 6.92-2.07 1.7-1.57 2.64-3.9 2.84-6.98zm30.97 2.44c-.2 4.62-1.08 9.43-2.64 14.42-.78 2.5-1.84 3.72-3.17 3.67-1.37-.06-2.02-.86-1.95-2.42.02-.35.04-.62.08-.78-1.76.85-3.56 1.24-5.4 1.16-3.26-.14-5.76-1.17-7.51-3.08s-2.56-4.53-2.42-7.84c.14-3.36 1.24-5.98 3.3-7.86s4.72-2.75 8-2.61c2.85.12 5.21 1.18 7.09 3.17-.04-6.68-2.37-10.12-6.99-10.31-1.03-.04-2.14.22-3.34.78-1.2.57-1.98.84-2.33.83-.57-.02-1.08-.28-1.51-.77-.44-.49-.64-1.04-.61-1.65.04-1.01.82-1.92 2.32-2.72 1.61-.86 3.5-1.25 5.68-1.15 8.07.33 11.87 6.06 11.4 17.16zm-5.39 5.73c.18-4.29-1.74-6.51-5.78-6.69-4.42-.19-6.72 1.84-6.9 6.1-.18 4.29 1.92 6.52 6.31 6.71 1.91.08 3.42-.42 4.55-1.49 1.13-1.08 1.74-2.62 1.82-4.63zm38.28-.13c-.02 1.76-1.84 3.99-5.44 6.69-2.54 1.89-5.86 2.81-9.94 2.75-4.05-.05-7.23-1.43-9.52-4.13-2.34-2.75-3.48-6.5-3.42-11.24.08-6.13 1.51-10.89 4.3-14.27 2.78-3.38 6.56-5.04 11.34-4.98 3.55.05 6.44.88 8.68 2.5 2.12 1.51 3.17 3.31 3.14 5.39-.02 1.71-.83 2.55-2.42 2.53-.74-.01-1.28-.28-1.61-.81-.29-.75-.75-1.68-1.36-2.81-1.18-1.37-3.35-2.07-6.51-2.11-3.29-.04-5.85 1.16-7.69 3.62-1.83 2.46-2.78 5.99-2.84 10.6-.1 7.29 2.76 10.98 8.57 11.06 3.36.05 6.25-1.11 8.66-3.46.02-.02.55-.77 1.6-2.26.62-.9 1.32-1.35 2.09-1.34.61.01 1.15.25 1.64.72.5.48.74.99.73 1.55zm11.62-25.88c0-.03-.17.51-.52 1.63-.39 1.31-.69 2.75-.91 4.3-.32 2.27-.44 4.77-.37 7.48l.49 6.96.49 7.03c.06 2.25-.11 3.85-.49 4.8-.41 1.04-1.19 1.57-2.32 1.6-.93.02-1.54-.31-1.85-.99-.18-.4-.28-1.14-.31-2.22l-.05-3.17-.04-2.53-.4-6.88-.38-5.97c-.11-4.49.21-8.02.96-10.59.73-2.45 1.77-3.69 3.1-3.73.66-.02 1.25.21 1.78.67s.8 1 .82 1.61zm17.85 4.67c.03 1.04-1.04 2.17-3.21 3.37l-9.5 4.79c4.08 3.96 7.26 7.49 9.55 10.6 2.04 2.79 3.08 4.82 3.11 6.11a2.64 2.64 0 0 1-.68 1.89c-.47.53-1.01.81-1.64.83-.68.02-1.28-.37-1.8-1.15-1.28-1.96-3.15-4.7-5.6-8.22-1.75-2.32-4.03-4.71-6.86-7.15l-1.55-1.33c-.52-.61-.79-1.34-.81-2.18-.02-.78.5-1.46 1.55-2.04l4.41-2.11c1.42-.73 3.68-2.03 6.8-3.92 1.88-1.14 3.13-1.72 3.76-1.74 1.6-.05 2.43.7 2.47 2.25zm25.74 14.16c.24 4.62-.19 9.49-1.28 14.6-.54 2.56-1.48 3.88-2.82 3.95-1.37.07-2.09-.67-2.17-2.22-.02-.35-.01-.62.01-.79-1.67 1.02-3.43 1.57-5.27 1.67-3.25.17-5.84-.62-7.77-2.36-1.92-1.74-2.97-4.27-3.14-7.57-.17-3.36.68-6.07 2.55-8.13s4.44-3.18 7.71-3.35c2.85-.15 5.3.68 7.36 2.49-.66-6.65-3.31-9.85-7.93-9.61-1.03.05-2.11.42-3.25 1.09-1.14.68-1.89 1.02-2.24 1.04-.57.03-1.1-.18-1.58-.63s-.74-.98-.77-1.58c-.05-1.01.63-1.99 2.06-2.92 1.52-1.01 3.37-1.57 5.54-1.68 8.09-.43 12.41 4.91 12.99 16zm-4.83 6.21c-.22-4.28-2.35-6.32-6.38-6.11-4.42.23-6.52 2.47-6.3 6.72.22 4.28 2.52 6.31 6.91 6.09 1.91-.1 3.37-.74 4.39-1.91 1.02-1.19 1.48-2.78 1.38-4.79zm34.16-26.62c.09 1.31-.6 2.02-2.08 2.13-.2.01-.63.01-1.3-.01l-2.11-.03c2.2 2.09 3.41 4.68 3.63 7.76.22 3-.67 5.54-2.64 7.62-1.98 2.08-4.66 3.24-8.04 3.49-.76.05-1.98.06-3.66.01-1.35 1.18-2.4 2.54-3.14 4.09l6.48-1.05c6.91-.5 10.53 1.64 10.87 6.41.21 2.88-.93 5.23-3.42 7.06s-6.06 2.91-10.73 3.25c-2.93.21-5.31-.19-7.15-1.19-1.71-.94-2.62-2.22-2.74-3.82-.04-.57.17-1.09.63-1.54a2.51 2.51 0 0 1 1.67-.75c.44-.03.89.13 1.36.49l1.36 1.25c.88.77 2.48 1.07 4.79.9 2.96-.21 5.24-.77 6.84-1.66 1.55-.86 2.27-1.94 2.18-3.25-.14-1.9-2.41-2.7-6.82-2.38-1.04.08-2.42.27-4.11.59-1.7.32-2.88.5-3.55.55-1.63.12-2.49-.4-2.57-1.54-.11-1.6 1.26-4.43 4.14-8.5-2.73-1.65-4.21-4.2-4.46-7.65-.23-3.2.72-6.02 2.85-8.46s4.85-3.78 8.17-4.02c.71-.05 1.52-.02 2.44.08.5-.87 2.26-1.41 5.29-1.62 3.77-.3 5.71.31 5.82 1.79zm-6.69 9.72c-.13-1.87-.8-3.33-2-4.38s-2.72-1.51-4.56-1.37c-2.02.15-3.62.94-4.81 2.39s-1.7 3.26-1.54 5.43c.25 3.52 2.48 5.13 6.7 4.83 2.12-.15 3.72-.83 4.81-2.03s1.54-2.83 1.4-4.87zm16.13-15.33c.2 2.39-.87 3.68-3.21 3.88a3.25 3.25 0 0 1-2.47-.78 3.27 3.27 0 0 1-1.17-2.29c-.08-1.01.2-1.9.84-2.66.65-.77 1.48-1.19 2.51-1.28.96-.08 1.76.17 2.4.74.65.57 1.02 1.37 1.1 2.39zm-.27 9.71c.86 10.15 1.13 17.67.81 22.58-.12 1.98-.33 3.32-.63 4.02-.38.93-1.07 1.44-2.08 1.52a2.42 2.42 0 0 1-1.77-.52c-.51-.41-.79-.92-.84-1.54.01.08.09-.51.26-1.78.2-1.44.33-3.07.38-4.89.05-2.58-.05-5.45-.32-8.62l-.42-4.36-.26-2.49c-.19-2.27-.13-3.87.18-4.79.32-1.01 1.04-1.56 2.15-1.66 1.54-.13 2.39.71 2.54 2.53zm33.15 8.49c.39 4 .12 8.04-.81 12.12-.57 2.53-1.45 3.85-2.63 3.97-.64.06-1.2-.08-1.69-.44-.49-.35-.76-.8-.82-1.36-.01-.15.24-1.72.77-4.72.53-2.99.65-5.93.37-8.8-.63-6.54-2.99-9.61-7.08-9.22-2.34.23-4.17 1.28-5.48 3.15-1.36 1.93-1.9 4.36-1.62 7.28.16 1.63.61 3.88 1.35 6.75s1.17 4.93 1.29 6.17c.28 2.89-.41 4.42-2.05 4.57-.84.08-1.44-.05-1.79-.39-.28-.26-.55-.83-.8-1.7-.12-1.04-.62-4.03-1.5-8.97-1.36-6.89-2.18-11.8-2.46-14.73-.49-5.09.25-7.73 2.21-7.92.64-.06 1.2.08 1.7.43.49.35.76.79.81 1.31.04.37 0 1.08-.1 2.12s-.12 1.92-.05 2.63l.06.58c2.16-3.62 5.03-5.6 8.59-5.94 3.28-.32 5.95.65 8 2.91 2.04 2.26 3.29 5.66 3.73 10.2zm28.48-19.64c.14 1.31-.52 2.05-2 2.21-.2.02-.63.04-1.29.04l-2.11.05c2.28 2.01 3.58 4.55 3.92 7.62.33 2.99-.46 5.56-2.35 7.71-1.9 2.15-4.53 3.41-7.91 3.78-.76.08-1.97.13-3.65.15-1.31 1.23-2.3 2.63-2.98 4.2l6.43-1.29c6.88-.75 10.58 1.24 11.11 5.99.31 2.87-.74 5.27-3.15 7.19s-5.95 3.14-10.6 3.65c-2.92.32-5.32.01-7.18-.92-1.75-.88-2.7-2.12-2.88-3.71-.06-.57.13-1.09.57-1.57.44-.47.99-.75 1.64-.82.44-.05.89.1 1.37.44l1.41 1.2c.91.73 2.52.97 4.82.72 2.95-.32 5.21-.96 6.77-1.91 1.51-.91 2.2-2.02 2.06-3.33-.21-1.9-2.51-2.6-6.91-2.12-1.04.11-2.4.36-4.09.74s-2.86.61-3.53.68c-1.63.18-2.5-.3-2.63-1.44-.17-1.59 1.1-4.48 3.82-8.65-2.79-1.55-4.37-4.04-4.75-7.48-.35-3.19.49-6.04 2.53-8.56s4.71-3.96 8.01-4.32c.71-.08 1.52-.08 2.45-.01.46-.88 2.21-1.49 5.23-1.82 3.75-.43 5.71.1 5.87 1.58zm-6.32 9.97c-.2-1.86-.93-3.3-2.17-4.3s-2.78-1.4-4.6-1.2c-2.01.22-3.59 1.08-4.71 2.57-1.13 1.49-1.57 3.32-1.34 5.48.38 3.51 2.68 5.03 6.87 4.57 2.12-.23 3.69-.97 4.73-2.21 1.04-1.25 1.44-2.88 1.22-4.91z"/><path d="M414.55 215.06s-.52-1.53-3.31-1.53-3.85 4.93-.93 7.85c2.91 2.91 5.27 4.3 5.27 4.3s-2.06-7.54-1.03-10.62zm41.18-.27s.52-1.53 3.31-1.53c2.8 0 3.85 4.93.93 7.85-2.91 2.91-5.27 4.3-5.27 4.3s2.07-7.54 1.03-10.62z" class="t"/><path d="M457.55 216.66s.21-.62 1.36-.62c1.14 0 1.57 2.02.38 3.21s-2 1.66-2 1.66.68-2.99.26-4.25zm-44.93-.02s-.22-.62-1.36-.61-1.55 2.03-.35 3.21 2.01 1.64 2.01 1.64-.71-2.98-.3-4.24z" fill="#d9816c"/><g class="t"><path d="M423.63 240.02v13.01l14.79 18.59c.1.12 1.1-.06 1.15-.21L444 259.4l.13-18.97c.01.01-9.42 5.43-20.5-.41z"/><path d="M456.65 217.88c0 14.93-9.7 27.03-21.67 27.03s-21.67-12.1-21.67-27.03-9.17-23.61 21.67-23.61c31.92 0 21.67 8.69 21.67 23.61z"/></g><g class="l"><path d="M410.39 173.97a.9.9 0 0 1 1.44.39c.56 1.69 2.33 5.06 7.53 5.06h28.36c.08 0 .16.01.24.03 1.22.35 12 3.68 12 13.74 0 10.67-1.29 20.97-2.17 21.85-.77.77-5.76-15.8-6.98-19.91a.89.89 0 0 0-1.15-.59c-2.5.87-10.07 3.2-19.42 3.2-11.5 0-16.05-.52-16.05 6.42s0 11.91-1.04 11.39-2.59-10.15-2.59-13.57-5.7-10.05-5.7-13.15c0-2.69 2.76-12.42 5.53-14.86zm8.97 33.61s2.59-.93 4.35-.93 4.25.93 4.25.93m13.15 0s2.59-.93 4.35-.93 4.25.93 4.25.93" fill="#936037" stroke="#683c11" class="v"/><path d="M421.54 217s-.47-1.94 1.94-1.94 3.86 1.94 3.86 1.94m14.39 0s.93-1.94 3.11-1.94 3.11.97 3.11.97" stroke="#683c11" fill="none" class="v"/><path d="M435.59 219.33s-1.48 2.72-2.87 3.03c-1.4.31-1.63 2.49-1.24 3.03s.78 1.94 3.5 1.94h1.4" stroke="#d9816c" class="t v"/><path d="M442.28 229.91c.19-.17.47-.01.44.25-.41 3.39-3.69 6.03-7.67 6.03-4 0-7.28-2.66-7.68-6.07-.03-.24.27-.38.44-.22 1.03.93 3.63 2.9 7.23 2.9 3.61.02 6.21-1.95 7.24-2.89z" fill="none" stroke="#d44a5b" stroke-width="1.448"/></g><path d="M406.93 354.6s18.78 3.93 32.93 3.93c14.14 0 27.82-3.93 27.82-3.93v171.8s-4.04 1.26-7.77 1.26-11.5-1.89-11.5-1.89l-5.28-136.91h-13.52l-13.83 138.8s-3.73 1.1-10.1 0-9.32-3.46-9.32-3.46 13.06-156.87 10.57-169.6z" fill="#7d4e24"/><path d="M406.68 355.3v14.63s12.45-3.22 12.45-8.29v-6.34h-12.45zm60.76-.7v17.08s-7.38-3.76-7.38-9.68v-7.4h7.38z" fill="#ae6c31"/><path d="M418.16 355.3s1.53 4.93-2.89 9.03-8.59 4.28-8.59 4.28v2.37s5.25-.04 10.66-5.05 3.55-10.63 3.55-10.63h-2.73z" fill="#c58341"/><path d="M460.44 354.6s-.93 5.91 1.76 10.82c2.7 4.9 5.24 5.13 5.24 5.13v2.84s-3.2-.05-6.5-6.05-2.17-12.74-2.17-12.74h1.67z" fill="#c48341"/><g fill="#c58341"><path d="M436.23 360.5h2.66v23.15h-2.66z"/><path d="M443.08 360.72v16.18c0 .01 0 .02-.01.02-.32.53-1.26 5.2-4.18 5.35v1.38s7.07-2.49 7.44-8.18c.34-5.23.06-13.29.01-14.77 0-.11-.1-.2-.21-.2h-2.83c-.13 0-.22.1-.22.22z"/></g><path d="M399.6 528.45l-2.06 11.71s3.95 3.04 7.42 3.65 6.58-2.07 6.58-2.07l1.8-10.23s-4.2 1.31-6.21.96-7.53-4.02-7.53-4.02zm52.23 2.48v8.78s4.42 1.71 7.94 1.71 6.12-2.35 6.12-2.35v-7.68s-3.91 1.49-5.95 1.49c-2.04.01-8.11-1.95-8.11-1.95z" class="t"/><path d="M448.41 525.77v6.4s6.06 1.24 10.87 1.24 8.39-1.71 8.39-1.71v-5.59s-5.36 1.09-8.16 1.09c-2.79 0-11.1-1.43-11.1-1.43zm-52.09-1.69l-.92 6.33s5.97 2.12 10.86 2.83 8.76-.46 8.76-.46l.8-5.53s-5.6.29-8.43-.12c-2.84-.42-11.07-3.05-11.07-3.05z" fill="#e0a67a"/><path d="M478.47,553.19c0-5.26,4.19-9.52,9.36-9.52s9.36,4.26,9.36,9.52" class="w"/><path d="M452.18 538.56c-.95-.45-2.07.02-2.46 1-.25.64-.46 1.5-.53 2.65-.21 3.52 0 10.98 0 10.98h32.21v-4.56s.27-2.63 1.27-3.37c.97-.7-11.2-7.16-14.8-9.31-.48-.29-1.1-.12-1.36.38-.7 1.37-2.52 3.73-6.74 3.73-3.71 0-6.23-.86-7.59-1.5z" fill="#c6c6c6"/><path d="M449.19 553.19h48.01v1.28h-48.01z" class="w"/><path d="M396.28 536.94l-6.49 9.51 10.23 9.68h14.6V539.9s-1.24-1.55-2.17-1.55.89 3.42-6.84 3.42c-5.41 0-7.43-2.93-8.16-4.69-.2-.5-.87-.59-1.17-.14z" fill="#c6c6c6"/><g class="w"><path d="M384.64,556.34c0-5.66,3.44-10.25,7.69-10.25s7.69,4.59,7.69,10.25"/><path d="M384.64 556.14h29.98v1.2h-29.98z"/></g><path d="M517.12 248.9c0-4.14 1.24-8.49 1.44-9.74.2-1.24-.51-9.11-.51-10.56s1.14-9.28 0-9.28-1.55 7.51-1.55 8.76c0 1.24-.93.31-1.97.31s.72-12.79-1.76-12.79c-2.49 0-.72 10.41-.72 11.72s-1.45 1.69-2.49.65-1.66-14.72-2.18-14.72-1.04.02-1.45.64-.1 4.66.21 5.7 1.35 6.63 1.8 7.74-1.59 2.41-2.21 2.11c-.62-.31-3.31-2.59-4.66-2.59s-1.31 1.81-2.23 2.95c-1 1.26-.78 6.06-.78 8.86s7.07 6.81 9.01 8.75 0 40.24 0 41.5-2.77 0-2.77 0l-5.31 9.2s8.39 6.8 15.12 6.8 6.63-5.87 6.63-18.82-3.62-33.04-3.62-37.19zm-14.13-12.05c-.9.38-2.26-.82-3.05-2.68s-.7-3.67.2-4.05 2.26.82 3.05 2.68c.78 1.86.69 3.67-.2 4.05zm-109.87 74.99s-2.97 2.29-2.97 10.33-1.86 48.22 0 50.09c1.86 1.86 8.7 7.04 9.53 11.19s2.3 5.57 1.79 6.16c-.52.6-1.48.88-1.71.34s-.63.07-.91.21c-.3.16-1.04.16-1.17 1.57-.05.52-.62.78-1.24.78s-1.22-.39-2.98-.39-8.23.31-8.65.03c-.41-.28-2.74-3.42-2.77-5.98s-2.77-19.16-2.67-20.69-2.64-19.89-2.77-25.06-.85-14.11 0-21.34 3.12-11.12 3.12-11.12l13.4 3.88z" class="t"/><path d="M424.23 247.96v5.46l14.37 16.9a.75.75 0 0 0 1.27-.21l4.15-10.51v-11.61c0-.27.34-.4.51-.19l6.53 7.57s15.17 1.2 20.56 4.92 29.62 19.47 29.62 19.47l-9.17 16.38-19.16-10.94s-1.66-.47-1.92 1.41-3.62 21.04-3.68 27.37l-.47 35.38c.31 1.78 3.83 3.98 3.16 5.34s-8.08 4.5-10.98 4.4-34.9-.21-35.11 0-12.79-1.05-16.16-1.94-3.37-5.91-1.97-6.02c1.4-.1.67-3.82.67-3.82v-29.83s-3.42-19.89-5.18-19.89-3.99 7.27-3.99 7.27l-18.02-5.44s3.62-37.16 14.29-37.16c10.29 0 25.49-4.57 30.18-14.43.14-.24.5-.15.5.12z" fill="#23466e"/><path d="M394.91 312.36l-17.85-5.18c-.08-.02-.13-.11-.1-.19l2.27-7.82c.02-.08.11-.13.19-.1l17.85 5.18c.08.02.13.11.1.19l-2.27 7.82c-.02.08-.11.12-.19.1zm113.14-28.51l-9.24 16c-.04.07-.14.1-.21.06l-7.05-4.07c-.07-.04-.1-.14-.06-.21l9.24-16c.04-.07.14-.1.21-.06l7.05 4.07c.08.05.1.14.06.21z" fill="#437193"/><path d="M432.09 262.51l-6.28 5.27-7.89-13.15 6-6.45.15 5.31z" fill="#3d5d7d"/><path d="M451.31 270.03l-7.42-3.97.13-18.53c0-.11.14-.16.21-.08l7.09 7.49v15.09z" fill="#375f76"/><path d="M439.24 269.87h1.25v87.93h-1.25zM413.2 286.5h17.76v6.16H413.2z" fill="#4b6e90"/><path d="M430.96 303.12l-8.88 3.99-8.88-3.99v-10.46h17.76z" fill="#395f7d"/><path d="M450.91 286.09h16.25v5.64h-16.25z" fill="#4b6e92"/><path d="M467.16 301.27l-8.12 3.63-8.13-3.63v-9.51h16.25z" fill="#3b5d78"/><radialGradient id="B" cx="437.202" cy="271.664" r="1.631" gradientUnits="userSpaceOnUse"><stop offset="0" stop-color="#fff"/><stop offset=".388" stop-color="#4b6e92"/></radialGradient><circle cx="437.2" cy="271.66" r="1.63" fill="url(#B)"/><radialGradient id="C" cx="437.202" cy="288.658" r="1.631" gradientUnits="userSpaceOnUse"><stop offset="0" stop-color="#fff"/><stop offset=".388" stop-color="#4b6e92"/></radialGradient><circle cx="437.2" cy="288.66" r="1.63" fill="url(#C)"/><radialGradient id="D" cx="437.202" cy="304.903" r="1.631" gradientUnits="userSpaceOnUse"><stop offset="0" stop-color="#fff"/><stop offset=".388" stop-color="#4b6e92"/></radialGradient><circle cx="437.2" cy="304.9" r="1.63" fill="url(#D)"/><radialGradient id="E" cx="437.202" cy="322.169" r="1.631" gradientUnits="userSpaceOnUse"><stop offset="0" stop-color="#fff"/><stop offset=".388" stop-color="#4b6e92"/></radialGradient><circle cx="437.2" cy="322.17" r="1.63" fill="url(#E)"/><radialGradient id="F" cx="437.202" cy="337.623" r="1.631" gradientUnits="userSpaceOnUse"><stop offset="0" stop-color="#fff"/><stop offset=".388" stop-color="#4b6e92"/></radialGradient><circle cx="437.2" cy="337.62" r="1.63" fill="url(#F)"/><radialGradient id="G" cx="437.202" cy="353.618" r="1.631" gradientUnits="userSpaceOnUse"><stop offset="0" stop-color="#fff"/><stop offset=".388" stop-color="#4b6e92"/></radialGradient><circle cx="437.2" cy="353.62" r="1.63" fill="url(#G)"/><path d="M233.46 386.98h15.08V576.4h-15.08z"/><path d="M261.28 405.7h7.96v125.54h-7.96z" class="l u y"/><path d="M622.23 387.07h14.17V576.4h-14.17z"/><g class="l u y"><path d="M602.23 405.7h7.96v125.54h-7.96z"/><path d="M234.52 387.46h401.87v18.25H234.52z"/></g><path d="M571.38 390.99h-81.64a2.87 2.87 0 0 1-2.87-2.87v-55.24a2.87 2.87 0 0 1 2.87-2.87h81.64a2.87 2.87 0 0 1 2.87 2.87v55.24a2.87 2.87 0 0 1-2.87 2.87z" stroke-width="1.933" class="l m n"/><path d="M502.07 379.33c-.1 0-.18-.03-.24-.09s-.08-.14-.08-.23v-9.26c0-.1.03-.19.08-.25s.14-.09.24-.09h5.86c.1 0 .18.03.24.09s.09.14.09.25v.54c0 .1-.03.18-.09.24s-.14.08-.24.08h-4.82v3.1h4.51c.1 0 .18.03.24.09s.08.14.08.25v.53c0 .09-.03.17-.08.23s-.14.09-.24.09h-4.51v3.22h4.93c.1 0 .18.03.24.08s.08.14.08.24v.55c0 .09-.03.17-.08.23s-.14.09-.24.09h-5.97zm11.84.15c-.87 0-1.59-.16-2.16-.48s-1-.77-1.3-1.35c-.29-.58-.45-1.25-.48-2.01l-.01-1.25.01-1.28c.03-.77.19-1.44.48-2.01.29-.58.73-1.03 1.3-1.35s1.29-.48 2.16-.48c.65 0 1.22.09 1.72.27.49.18.9.42 1.23.72s.57.64.74 1.01.26.76.28 1.16c.01.08-.02.16-.08.21-.06.06-.13.08-.22.08h-.78c-.08 0-.16-.02-.22-.07s-.11-.13-.13-.25c-.16-.74-.46-1.24-.9-1.52-.44-.27-.99-.41-1.65-.41-.76 0-1.36.21-1.8.64s-.69 1.12-.72 2.06v2.38c.04.95.28 1.63.72 2.06s1.04.64 1.8.64c.66 0 1.21-.14 1.65-.41s.74-.78.9-1.52c.03-.12.07-.21.13-.26s.13-.07.22-.07h.78a.35.35 0 0 1 .22.08c.06.06.09.13.08.21a3.18 3.18 0 0 1-.28 1.16c-.17.38-.42.71-.74 1.01s-.74.54-1.23.72c-.5.22-1.07.31-1.72.31zm9.43 0c-.8 0-1.49-.14-2.07-.42s-1.02-.71-1.33-1.29-.49-1.31-.52-2.19l-.01-1.2.01-1.2c.04-.87.22-1.59.54-2.18.33-.58.78-1.02 1.36-1.3.58-.29 1.25-.43 2.02-.43s1.45.14 2.03.43a3.18 3.18 0 0 1 1.37 1.3c.33.58.51 1.31.54 2.18l.03 1.2-.03 1.2c-.03.88-.2 1.61-.52 2.19s-.76 1.01-1.34 1.29-1.27.42-2.08.42zm0-1.21c.73 0 1.32-.22 1.78-.65s.71-1.14.74-2.11l.03-1.14-.03-1.13c-.02-.65-.14-1.18-.36-1.59s-.52-.7-.89-.89-.79-.28-1.28-.28c-.46 0-.88.09-1.25.28s-.66.49-.89.89c-.22.41-.35.94-.38 1.59l-.01 1.13.01 1.14c.04.97.29 1.68.75 2.11.48.43 1.07.65 1.78.65zm9.84 1.06c-.1 0-.18-.03-.24-.09s-.08-.14-.08-.23v-9.26c0-.1.03-.19.08-.25s.14-.09.24-.09h3.88c.71 0 1.29.12 1.74.35s.78.55.99.94a2.81 2.81 0 0 1 .32 1.33c0 .39-.06.72-.19 1a2.21 2.21 0 0 1-.47.68c-.19.17-.37.31-.55.4.37.18.7.47.98.88.29.41.43.9.43 1.47 0 .52-.12 1-.35 1.43s-.59.78-1.06 1.04-1.05.39-1.74.39h-3.98zm1.06-5.72h2.61c.6 0 1.06-.14 1.38-.42.31-.28.47-.66.47-1.14s-.16-.85-.47-1.11-.77-.38-1.38-.38h-2.61v3.05zm0 4.58h2.74c.61 0 1.09-.17 1.42-.5s.5-.74.5-1.22a1.68 1.68 0 0 0-.5-1.24c-.33-.33-.8-.49-1.42-.49h-2.74v3.45zm11.64 1.29c-.8 0-1.49-.14-2.07-.42s-1.02-.71-1.33-1.29-.49-1.31-.52-2.19l-.01-1.2.01-1.2c.04-.87.22-1.59.54-2.18.33-.58.78-1.02 1.36-1.3.58-.29 1.25-.43 2.02-.43s1.45.14 2.03.43a3.18 3.18 0 0 1 1.37 1.3c.33.58.51 1.31.54 2.18l.03 1.2-.03 1.2c-.03.88-.2 1.61-.52 2.19s-.76 1.01-1.34 1.29-1.27.42-2.08.42zm0-1.21c.73 0 1.32-.22 1.78-.65s.71-1.14.74-2.11l.03-1.14-.03-1.13c-.02-.65-.14-1.18-.36-1.59s-.52-.7-.89-.89-.79-.28-1.28-.28c-.46 0-.88.09-1.25.28s-.66.49-.89.89c-.22.41-.35.94-.38 1.59l-.01 1.13.01 1.14c.04.97.29 1.68.75 2.11.49.43 1.07.65 1.78.65zm5.44 1.06c-.08 0-.14-.03-.21-.08s-.09-.12-.09-.2c0-.04.01-.07.02-.11.01-.03.03-.06.04-.08l3.25-4.58-3.09-4.41c-.03-.06-.04-.12-.04-.18 0-.08.03-.14.08-.2s.12-.08.2-.08h.85c.09 0 .17.02.23.06a.57.57 0 0 1 .16.18l2.5 3.54 2.48-3.54c.04-.08.09-.13.15-.18s.13-.06.22-.06h.81c.08 0 .14.03.2.08s.08.12.08.2a.28.28 0 0 1-.06.18l-3.05 4.42 3.23 4.57c.02.02.03.04.04.08a.41.41 0 0 1 .01.11c0 .08-.03.14-.08.2s-.13.08-.21.08h-.87c-.08 0-.16-.02-.22-.07s-.12-.1-.16-.16l-2.64-3.69-2.62 3.69a1.21 1.21 0 0 1-.16.16c-.06.05-.13.07-.23.07h-.82z" class="j"/><path d="M529.67 361.28l.41-.19s-.71-1.38 1.73-3.29 4.02-1.97 6.42-1.97 4.23.91 4.23.91-1.54.86-2.38 1.52c-.75.59-2.99 2.74-4.41 3.27-1.48.56-2.42.67-3.02.67-.53-.01-1.61-.01-2.33-.91l-.58.24-.07-.25z" class="k"/><g class="l"><path d="M529.43 353.58l-.27 14.26h.85l-.42-14.26z" stroke-width=".21" class="j o"/><g stroke-width=".294" class="k p"><path d="M529.47 353.58l-6.24-2.94-.01-8c0-.01.01-.02.02-.01l6.24 2.58.01 8.35c0 .02-.01.03-.02.02z"/><path d="M535.76 350.64l-6.24 2.94c-.01.01-.02 0-.02-.01v-8.34l6.25-2.59c.01 0 .02 0 .02.01v7.99z"/><path d="M529.5 340.26l6.23 2.4c.01.01.01.02 0 .03l-6.23 2.58-6.28-2.57c-.01-.01-.01-.02 0-.03l6.27-2.42z"/></g></g><path d="M529.89 361.36c-.01 0 2.43-2.33 6.37-3.54 3.8-1.17 5.02-1.06 5.02-1.06s-2.8-.13-5.76 1.11-3.83 1.94-4.48 2.48l-1.18.94.03.07z" class="j"/><path d="M529.39 357.71l-.41-.19s.71-1.38-1.73-3.29-4.02-1.97-6.42-1.97-4.23.91-4.23.91 1.54.86 2.38 1.52c.75.59 2.99 2.74 4.41 3.27 1.49.56 2.42.67 3.02.67.53-.01 1.61-.01 2.33-.91l.58.24.07-.25z" class="k"/><path d="M529.17 357.78c.01 0-2.43-2.33-6.37-3.54-3.8-1.17-5.02-1.06-5.02-1.06s2.8-.13 5.76 1.11 3.83 1.94 4.48 2.48l1.18.94-.03.07z" class="j"/><path d="M59.47 570.07H12.28a2.87 2.87 0 0 1-2.87-2.87V536a2.87 2.87 0 0 1 2.87-2.87h47.19a2.87 2.87 0 0 1 2.87 2.87v31.2c0 1.59-1.28 2.87-2.87 2.87z" class="l m n q"/><g class="j"><use xlink:href="#J"/><use xlink:href="#K"/><path d="M31.5 563.1c-.49 0-.9-.08-1.25-.25s-.62-.43-.81-.78-.29-.79-.32-1.33l-.01-.73.01-.73c.02-.53.13-.97.33-1.32s.47-.62.82-.79.76-.26 1.22-.26c.47 0 .88.09 1.23.26s.63.44.83.79.31.79.33 1.32l.02.73-.02.73c-.02.53-.12.97-.31 1.33-.19.35-.46.61-.81.78-.34.16-.77.25-1.26.25zm0-.73c.44 0 .8-.13 1.08-.39s.43-.69.45-1.28l.02-.69-.02-.68c-.01-.4-.08-.72-.22-.96-.13-.25-.31-.43-.54-.54-.22-.12-.48-.17-.77-.17a1.73 1.73 0 0 0-.76.17c-.22.11-.4.29-.54.54-.13.25-.21.57-.23.96l-.01.68.01.69c.02.59.17 1.02.46 1.28s.64.39 1.07.39z"/><use xlink:href="#L"/><use xlink:href="#M"/><use xlink:href="#N"/></g><use xlink:href="#O" class="k"/><g class="l"><path d="M35.19 547.41l-.16 8.64h.51l-.25-8.64z" class="j o r"/><g class="k p s"><use xlink:href="#P"/><use xlink:href="#Q"/><use xlink:href="#R"/></g></g><use xlink:href="#S" class="j"/><use xlink:href="#T" class="k"/><use xlink:href="#U" class="j"/><path d="M112.4 569.94H65.21a2.87 2.87 0 0 1-2.87-2.87v-31.2a2.87 2.87 0 0 1 2.87-2.87h47.19a2.87 2.87 0 0 1 2.87 2.87v31.2c0 1.59-1.28 2.87-2.87 2.87z" class="l m n q"/><g class="j"><path d="M71.55 562.88c-.06 0-.11-.02-.15-.06-.03-.04-.05-.08-.05-.14v-5.61c0-.06.02-.11.05-.15s.08-.06.15-.06h3.55c.06 0 .11.02.15.06.03.04.05.09.05.15v.33c0 .06-.02.11-.05.15-.03.03-.08.05-.15.05h-2.92v1.88h2.73c.06 0 .11.02.15.06.03.04.05.09.05.15v.31c0 .06-.02.1-.05.14s-.08.06-.15.06h-2.73v1.95h2.99c.06 0 .11.02.15.05.03.03.05.08.05.15v.33c0 .06-.02.1-.05.14s-.08.06-.15.06h-3.62z"/><use xlink:href="#K" x="52.93" y="-0.13"/><use xlink:href="#V"/><use xlink:href="#L" x="52.93" y="-0.13"/><use xlink:href="#M" x="52.93" y="-0.13"/><use xlink:href="#W"/></g><use xlink:href="#X" class="k"/><g class="l"><path d="M88.12 547.28l-.16 8.64h.51l-.25-8.64z" class="j o r"/><g class="k p s"><use xlink:href="#P" x="52.93" y="-0.13"/><use xlink:href="#Q" x="52.93" y="-0.13"/><use xlink:href="#R" x="52.92" y="-0.13"/></g></g><use xlink:href="#S" x="52.93" y="-0.13" class="j"/><use xlink:href="#Y" class="k"/><use xlink:href="#U" x="52.93" y="-0.12" class="j"/><path d="M165.33 569.81h-47.19a2.87 2.87 0 0 1-2.87-2.87v-31.2a2.87 2.87 0 0 1 2.87-2.87h47.19a2.87 2.87 0 0 1 2.87 2.87v31.2c0 1.59-1.28 2.87-2.87 2.87z" class="l m n q"/><g class="j"><use xlink:href="#J" x="105.86" y="-0.26"/><use xlink:href="#K" x="105.86" y="-0.26"/><use xlink:href="#V" x="52.93" y="-0.13"/><use xlink:href="#L" x="105.86" y="-0.26"/><use xlink:href="#M" x="105.86" y="-0.26"/><use xlink:href="#W" x="52.93" y="-0.13"/></g><use xlink:href="#X" x="52.93" y="-0.13" class="k"/><g class="l"><path d="M141.05 547.15l-.16 8.64h.51l-.25-8.64z" class="j o r"/><g class="k p s"><path d="M141.08 547.15l-3.78-1.78-.01-4.85 3.79 1.56.01 5.06c0 .01-.01.02-.01.01z"/><use xlink:href="#Q" x="105.86" y="-0.26"/><use xlink:href="#R" x="105.85" y="-0.26"/></g></g><use xlink:href="#S" x="105.86" y="-0.26" class="j"/><use xlink:href="#Z" class="k"/><use xlink:href="#U" x="105.86" y="-0.25" class="j"/><path d="M84.22 532.13H37.03a2.87 2.87 0 0 1-2.87-2.87v-31.2a2.87 2.87 0 0 1 2.87-2.87h47.19a2.87 2.87 0 0 1 2.87 2.87v31.2c0 1.59-1.28 2.87-2.87 2.87z" class="l m n q"/><g class="j"><path d="M43.37 525.07c-.06 0-.11-.02-.15-.06-.03-.04-.05-.08-.05-.14v-5.61c0-.06.02-.11.05-.15s.08-.06.15-.06h3.55c.06 0 .11.02.15.06.03.04.05.09.05.15v.33c0 .06-.02.11-.05.15-.03.03-.08.05-.15.05H44v1.88h2.73c.06 0 .11.02.15.06.03.04.05.09.05.15v.32c0 .06-.02.1-.05.14s-.08.06-.15.06H44v1.95h2.99c.06 0 .11.02.15.05.03.03.05.08.05.15v.33c0 .06-.02.1-.05.14s-.08.06-.15.06h-3.62z"/><use xlink:href="#K" x="24.75" y="-37.94"/><path d="M56.25 525.16c-.49 0-.9-.08-1.25-.25s-.62-.43-.81-.78-.29-.79-.32-1.33l-.01-.73.01-.73c.02-.53.13-.97.33-1.32s.47-.62.82-.79.76-.26 1.22-.26c.47 0 .88.09 1.23.26s.63.44.83.79.31.79.33 1.32l.02.73-.02.73c-.02.53-.12.97-.31 1.33-.19.35-.46.61-.81.78-.34.16-.76.25-1.26.25zm0-.73c.44 0 .8-.13 1.08-.39s.43-.69.45-1.28l.02-.69-.02-.68c-.01-.4-.08-.72-.22-.96-.13-.25-.31-.43-.54-.54-.22-.12-.48-.17-.77-.17a1.73 1.73 0 0 0-.76.17c-.22.11-.4.29-.54.54-.13.25-.21.57-.23.96l-.01.68.01.69c.02.59.17 1.02.46 1.28a1.58 1.58 0 0 0 1.07.39z"/><use xlink:href="#L" x="24.75" y="-37.94"/><path d="M69.91 525.16c-.49 0-.9-.08-1.25-.25s-.62-.43-.81-.78-.29-.79-.32-1.33l-.01-.73.01-.73c.02-.53.13-.97.33-1.32s.47-.62.82-.79.76-.26 1.22-.26c.47 0 .88.09 1.23.26s.63.44.83.79.31.79.33 1.32l.02.73-.02.73c-.02.53-.12.97-.31 1.33-.19.35-.46.61-.81.78-.35.16-.77.25-1.26.25zm0-.73c.44 0 .8-.13 1.08-.39s.43-.69.45-1.28l.02-.69-.02-.68c-.01-.4-.08-.72-.22-.96-.13-.25-.31-.43-.54-.54-.22-.12-.48-.17-.77-.17a1.73 1.73 0 0 0-.76.17c-.22.11-.4.29-.54.54-.13.25-.21.57-.23.96l-.01.68.01.69c.02.59.17 1.02.46 1.28.28.25.64.39 1.07.39z"/><use xlink:href="#N" x="24.76" y="-37.94"/></g><use xlink:href="#X" x="-28.18" y="-37.81" class="k"/><g class="l"><path d="M59.95 509.47l-.17 8.64h.52l-.26-8.64z" class="j o r"/><g class="k p s"><use xlink:href="#P" x="24.75" y="-37.94"/><path d="M63.78 507.69L60 509.47l-.01-5.06 3.79-1.58v4.86z"/><use xlink:href="#R" x="24.75" y="-37.94"/></g></g><use xlink:href="#S" x="24.75" y="-37.94" class="j"/><use xlink:href="#a" class="k"/><use xlink:href="#U" x="24.76" y="-37.94" class="j"/><path d="M137.15 532H89.96a2.87 2.87 0 0 1-2.87-2.87v-31.2a2.87 2.87 0 0 1 2.87-2.87h47.19a2.87 2.87 0 0 1 2.87 2.87v31.2c0 1.59-1.28 2.87-2.87 2.87z" class="l m n q"/><g class="j"><path d="M96.3 524.94c-.06 0-.11-.02-.15-.06-.03-.04-.05-.08-.05-.14v-5.61c0-.06.02-.11.05-.15s.08-.06.15-.06h3.55c.06 0 .11.02.15.06.03.04.05.09.05.15v.33c0 .06-.02.11-.05.15-.03.03-.08.05-.15.05h-2.92v1.88h2.73c.06 0 .11.02.15.06.03.04.05.09.05.15v.32c0 .06-.02.1-.05.14s-.08.06-.15.06h-2.73v1.95h2.99c.06 0 .11.02.15.05.03.03.05.08.05.15v.33c0 .06-.02.1-.05.14s-.08.06-.15.06H96.3z"/><use xlink:href="#K" x="77.68" y="-38.07"/><path d="M109.18 525.03c-.49 0-.9-.08-1.25-.25s-.62-.43-.81-.78-.29-.79-.32-1.33l-.01-.73.01-.73c.02-.53.13-.97.33-1.32s.47-.62.82-.79.76-.26 1.22-.26c.47 0 .88.09 1.23.26s.63.44.83.79.31.79.33 1.32l.02.73-.02.73c-.02.53-.12.97-.31 1.33-.19.35-.46.61-.81.78-.34.16-.76.25-1.26.25zm0-.73c.44 0 .8-.13 1.08-.39s.43-.69.45-1.28l.02-.69-.02-.68c-.01-.4-.08-.72-.22-.96-.13-.25-.31-.43-.54-.54-.22-.12-.48-.17-.77-.17a1.73 1.73 0 0 0-.76.17c-.22.11-.4.29-.54.54-.13.25-.21.57-.23.96l-.01.68.01.69c.02.59.17 1.02.46 1.28s.64.39 1.07.39z"/><use xlink:href="#L" x="77.68" y="-38.07"/><use xlink:href="#M" x="77.68" y="-38.07"/><use xlink:href="#N" x="77.69" y="-38.07"/></g><path d="M113.02 514.01l.25-.12s-.43-.84 1.05-1.99c1.48-1.16 2.43-1.19 3.89-1.19s2.56.55 2.56.55-.94.52-1.44.92c-.45.36-1.81 1.66-2.67 1.98-.9.34-1.46.41-1.83.4-.32 0-.97-.01-1.41-.55l-.35.15-.05-.15z" class="k"/><g class="l"><path d="M112.87 509.34l-.16 8.64h.51l-.25-8.64z" class="j o r"/><g class="k p s"><use xlink:href="#P" x="77.68" y="-38.07"/><use xlink:href="#Q" x="77.68" y="-38.07"/><use xlink:href="#R" x="77.68" y="-38.07"/></g></g><use xlink:href="#S" x="77.68" y="-38.07" class="j"/><use xlink:href="#Z" x="-28.17" y="-37.81" class="k"/><use xlink:href="#U" x="77.69" y="-38.07" class="j"/><path d="M110.69 495.19H63.5a2.87 2.87 0 0 1-2.87-2.87v-31.2a2.87 2.87 0 0 1 2.87-2.87h47.19a2.87 2.87 0 0 1 2.87 2.87v31.2a2.87 2.87 0 0 1-2.87 2.87z" class="l m n q"/><g class="j"><use xlink:href="#J" x="51.22" y="-74.88"/><path d="M77.01 488.22c-.53 0-.96-.1-1.31-.29s-.61-.47-.79-.82-.27-.76-.29-1.22l-.01-.76.01-.77c.02-.46.11-.87.29-1.22a1.95 1.95 0 0 1 .79-.82c.35-.19.78-.29 1.31-.29.4 0 .74.05 1.04.16s.55.25.74.44c.2.18.35.39.45.61.1.23.16.46.17.7.01.05-.01.09-.05.13s-.08.05-.13.05h-.47c-.05 0-.1-.01-.13-.04-.04-.03-.06-.08-.08-.15-.1-.45-.28-.75-.55-.92s-.6-.25-1-.25c-.46 0-.82.13-1.09.39s-.42.68-.44 1.25v1.44c.02.57.17.99.44 1.25s.63.39 1.09.39c.4 0 .73-.08 1-.25s.45-.47.55-.92c.02-.07.04-.12.08-.15s.08-.04.13-.04h.47a.19.19 0 0 1 .18.18c-.01.24-.07.47-.17.7a1.76 1.76 0 0 1-.45.61c-.2.18-.45.33-.74.44-.3.12-.65.17-1.04.17zm5.71 0c-.49 0-.9-.08-1.25-.25s-.62-.43-.81-.78-.29-.79-.32-1.33l-.01-.73.01-.73c.02-.53.13-.97.33-1.32s.47-.62.82-.79.76-.26 1.22-.26c.47 0 .88.09 1.23.26s.63.44.83.79.31.79.33 1.32l.02.73-.02.73c-.02.53-.12.97-.31 1.33-.19.35-.46.61-.81.78s-.77.25-1.26.25zm0-.73c.44 0 .8-.13 1.08-.39s.43-.69.45-1.28l.02-.69-.02-.68c-.01-.4-.08-.72-.22-.96-.13-.25-.31-.43-.54-.54-.22-.12-.48-.17-.77-.17a1.73 1.73 0 0 0-.76.17c-.22.11-.4.29-.54.54-.13.25-.21.57-.23.96l-.01.68.01.69c.02.59.17 1.02.46 1.28.28.26.64.39 1.07.39zm5.96.64c-.06 0-.11-.02-.15-.06-.03-.04-.05-.08-.05-.14v-5.61c0-.06.02-.11.05-.15s.08-.06.15-.06h2.35c.43 0 .78.07 1.05.21s.47.33.6.57a1.67 1.67 0 0 1 .19.81c0 .24-.04.44-.12.61s-.17.31-.29.41c-.11.11-.23.19-.33.25.22.11.42.29.6.53s.27.55.27.9c0 .31-.07.6-.21.87s-.36.47-.64.63-.63.24-1.05.24h-2.42zm.64-3.46h1.58c.37 0 .64-.08.83-.25s.28-.4.28-.69-.09-.52-.28-.67-.47-.23-.83-.23h-1.58v1.84zm0 2.77h1.66c.37 0 .66-.1.86-.3a1.01 1.01 0 0 0 .3-.74c0-.3-.1-.55-.3-.75s-.49-.3-.86-.3h-1.66v2.09zm7.05.78c-.49 0-.9-.08-1.25-.25s-.62-.43-.81-.78-.29-.79-.32-1.33l-.01-.73.01-.73c.02-.53.13-.97.33-1.32s.47-.62.82-.79.76-.26 1.22-.26c.47 0 .88.09 1.23.26s.63.44.83.79.31.79.33 1.32l.02.73-.02.73c-.02.53-.12.97-.31 1.33-.19.35-.46.61-.81.78-.34.17-.76.25-1.26.25zm0-.73c.44 0 .8-.13 1.08-.39s.43-.69.45-1.28l.02-.69-.02-.68c-.01-.4-.08-.72-.22-.96-.13-.25-.31-.43-.54-.54-.22-.12-.48-.17-.77-.17a1.73 1.73 0 0 0-.76.17c-.22.11-.4.29-.54.54-.13.25-.21.57-.23.96l-.01.68.01.69c.02.59.17 1.02.46 1.28s.64.39 1.07.39zm3.3.64c-.05 0-.09-.02-.12-.05-.04-.03-.06-.07-.06-.12 0-.02 0-.04.01-.06s.02-.04.02-.05l1.97-2.77-1.87-2.67c-.02-.03-.03-.07-.03-.11 0-.05.02-.09.05-.12s.07-.05.12-.05h.52c.06 0 .1.01.14.04.03.03.07.06.09.11l1.51 2.15 1.5-2.15c.02-.05.05-.08.09-.11s.08-.04.13-.04h.49c.05 0 .09.02.12.05s.05.07.05.12c0 .04-.01.08-.03.11l-1.85 2.68 1.96 2.77c.01.01.02.03.03.05s.01.04.01.06c0 .05-.02.09-.05.12a.19.19 0 0 1-.13.05h-.52c-.05 0-.1-.01-.13-.04-.04-.03-.07-.06-.1-.09l-1.6-2.23-1.59 2.22c-.03.03-.06.07-.09.09s-.08.04-.14.04h-.5z"/></g><use xlink:href="#X" x="-1.72" y="-74.75" class="k"/><g class="l"><path d="M86.41 472.54l-.16 8.63h.51l-.26-8.63z" class="j o r"/><g class="k p s"><use xlink:href="#P" x="51.21" y="-74.88"/><use xlink:href="#Q" x="51.22" y="-74.88"/><use xlink:href="#R" x="51.21" y="-74.88"/></g></g><use xlink:href="#S" x="51.21" y="-74.88" class="j"/><use xlink:href="#Y" x="-1.71" y="-74.74" class="k"/><use xlink:href="#U" x="51.22" y="-74.87" class="j"/><use xlink:href="#b" class="l m n q"/><g class="j"><path d="M686.33 562.88c-.06 0-.11-.02-.15-.06s-.05-.08-.05-.14v-5.61c0-.06.02-.11.05-.15s.08-.06.15-.06h3.55c.06 0 .11.02.15.06.03.04.05.09.05.15v.33c0 .06-.02.11-.05.15s-.08.05-.15.05h-2.92v1.88h2.73c.06 0 .11.02.15.06.03.04.05.09.05.15v.31c0 .06-.02.1-.05.14-.04.04-.08.06-.15.06h-2.73v1.95h2.99c.06 0 .11.02.15.05s.05.08.05.15v.33c0 .06-.02.1-.05.14s-.08.06-.15.06h-3.62zm7.17.09c-.53 0-.96-.1-1.31-.29s-.61-.47-.79-.82-.28-.76-.29-1.22l-.01-.76.01-.77c.02-.46.11-.87.29-1.22a1.95 1.95 0 0 1 .79-.82c.35-.19.78-.29 1.31-.29.4 0 .74.05 1.04.16s.55.25.74.44.35.39.45.61c.1.23.16.46.17.7.01.05-.01.09-.05.13s-.08.05-.13.05h-.47c-.05 0-.1-.01-.13-.04s-.06-.08-.08-.15c-.1-.45-.28-.75-.55-.92s-.6-.25-1-.25c-.46 0-.82.13-1.09.39s-.42.68-.44 1.25v1.44c.02.57.17.99.44 1.25s.63.39 1.09.39c.4 0 .73-.08 1-.25s.45-.47.55-.92c.02-.07.04-.12.08-.15s.08-.04.13-.04h.47a.19.19 0 0 1 .18.18c-.01.24-.07.47-.17.7a1.76 1.76 0 0 1-.45.61c-.2.18-.45.33-.74.44-.3.11-.65.17-1.04.17z"/><use xlink:href="#c"/><use xlink:href="#d"/><use xlink:href="#e"/><use xlink:href="#f"/></g><use xlink:href="#O" x="667.7" y="-0.13" class="k"/><g class="l"><path d="M702.9 547.28l-.16 8.64h.51l-.26-8.64z" class="j o r"/><g class="k p s"><use xlink:href="#P" x="667.7" y="-0.13"/><use xlink:href="#Q" x="667.71" y="-0.13"/><use xlink:href="#R" x="667.7" y="-0.13"/></g></g><use xlink:href="#S" x="667.7" y="-0.13" class="j"/><use xlink:href="#T" x="667.71" y="-0.13" class="k"/><use xlink:href="#U" x="667.71" y="-0.12" class="j"/><use xlink:href="#b" x="52.93" y="-0.13" class="l m n q"/><g class="j"><path d="M739.26 562.75c-.06 0-.11-.02-.15-.06s-.05-.08-.05-.14v-5.61c0-.06.02-.11.05-.15s.08-.06.15-.06h3.55c.06 0 .11.02.15.06.03.04.05.09.05.15v.33c0 .06-.02.11-.05.15-.04.03-.08.05-.15.05h-2.92v1.88h2.73c.06 0 .11.02.15.06s.05.09.05.15v.32c0 .06-.02.1-.05.14s-.08.06-.15.06h-2.73v1.95h2.99c.06 0 .11.02.15.05s.05.08.05.15v.33c0 .06-.02.1-.05.14s-.08.06-.15.06h-3.62z"/><use xlink:href="#g"/><use xlink:href="#h"/><path d="M758.1 562.75c-.06 0-.11-.02-.15-.06s-.05-.08-.05-.14v-5.61c0-.06.02-.11.05-.15s.08-.06.15-.06h2.35c.43 0 .78.07 1.05.21s.47.33.6.57a1.67 1.67 0 0 1 .19.81c0 .24-.04.44-.12.61s-.17.31-.29.41c-.12.11-.23.19-.33.25.22.11.42.29.6.53s.26.54.26.89c0 .31-.07.6-.21.87-.14.26-.36.47-.64.63s-.63.24-1.05.24h-2.41zm.64-3.47h1.58c.37 0 .64-.08.83-.25s.28-.4.28-.69-.09-.52-.28-.67-.47-.23-.83-.23h-1.58v1.84zm0 2.78h1.66c.37 0 .66-.1.86-.3a1.01 1.01 0 0 0 .3-.74c0-.3-.1-.55-.3-.75s-.49-.3-.86-.3h-1.66v2.09zm7.05.78c-.49 0-.9-.08-1.25-.25s-.62-.43-.81-.78-.29-.79-.32-1.33l-.01-.73.01-.73c.02-.53.13-.97.33-1.32s.47-.62.82-.79.76-.26 1.22-.26c.47 0 .88.09 1.23.26s.63.44.83.79.31.79.33 1.32l.02.73-.02.73c-.02.53-.12.97-.31 1.33-.19.35-.46.61-.81.78-.34.16-.77.25-1.26.25zm0-.73c.44 0 .8-.13 1.08-.39s.43-.69.45-1.28l.02-.69-.02-.68c-.01-.4-.08-.72-.22-.96s-.31-.43-.54-.54c-.22-.12-.48-.17-.77-.17a1.73 1.73 0 0 0-.76.17c-.22.11-.4.29-.54.54-.13.25-.21.57-.23.96l-.01.68.01.69c.02.59.17 1.02.46 1.28s.64.39 1.07.39z"/><use xlink:href="#i"/></g><use xlink:href="#X" x="667.7" y="-0.13" class="k"/><g class="l"><path d="M755.83 547.15l-.17 8.64h.52l-.26-8.64z" class="j o r"/><g class="k p s"><use xlink:href="#P" x="720.63" y="-0.26"/><use xlink:href="#Q" x="720.64" y="-0.26"/><use xlink:href="#R" x="720.63" y="-0.26"/></g></g><use xlink:href="#S" x="720.63" y="-0.26" class="j"/><use xlink:href="#Y" x="667.71" y="-0.13" class="k"/><use xlink:href="#U" x="720.64" y="-0.25" class="j"/><use xlink:href="#b" x="105.86" y="-0.26" class="l m n q"/><g class="j"><path d="M792.19 562.62c-.06 0-.11-.02-.15-.06-.03-.04-.05-.08-.05-.14v-5.61c0-.06.02-.11.05-.15.04-.04.08-.06.15-.06h3.55c.06 0 .11.02.15.06.03.04.05.09.05.15v.33c0 .06-.02.11-.05.15-.04.03-.08.05-.15.05h-2.92v1.88h2.73c.06 0 .11.02.15.06.03.04.05.09.05.15v.32c0 .06-.02.1-.05.14-.04.04-.08.06-.15.06h-2.73v1.95h2.99c.06 0 .11.02.15.05.03.03.05.08.05.15v.33c0 .06-.02.1-.05.14-.04.04-.08.06-.15.06h-3.62zm7.17.09c-.53 0-.96-.1-1.31-.29s-.61-.47-.79-.82-.27-.76-.29-1.22l-.01-.76.01-.77c.02-.46.11-.87.29-1.22a1.95 1.95 0 0 1 .79-.82c.35-.19.78-.29 1.31-.29.4 0 .74.05 1.04.16s.55.25.74.44c.2.18.35.39.45.61.1.23.16.46.17.7.01.05-.01.09-.05.13s-.08.05-.13.05h-.47c-.05 0-.1-.01-.13-.04s-.06-.08-.08-.15c-.1-.45-.28-.75-.55-.92s-.6-.25-1-.25c-.46 0-.82.13-1.09.39s-.42.68-.44 1.25v1.44c.02.57.17.99.44 1.25s.63.39 1.09.39c.4 0 .73-.08 1-.25s.45-.47.55-.92c.02-.07.04-.12.08-.15s.08-.04.13-.04h.47a.19.19 0 0 1 .18.18c-.01.24-.07.47-.17.7a1.76 1.76 0 0 1-.45.61c-.2.18-.45.33-.74.44-.3.11-.65.17-1.04.17z"/><use xlink:href="#M" x="759.91" y="-0.39"/><path d="M811.03 562.62c-.06 0-.11-.02-.15-.06s-.05-.08-.05-.14v-5.61c0-.06.02-.11.05-.15s.08-.06.15-.06h2.35c.43 0 .78.07 1.05.21s.47.33.6.57a1.67 1.67 0 0 1 .19.81c0 .24-.04.44-.12.61s-.17.31-.29.41c-.11.11-.23.19-.33.25.22.11.42.29.6.53.18.25.26.54.26.89 0 .31-.07.6-.21.87s-.36.47-.64.63-.63.24-1.05.24h-2.41zm.64-3.47h1.58c.37 0 .64-.08.83-.25s.28-.4.28-.69-.09-.52-.28-.67-.47-.23-.83-.23h-1.58v1.84zm0 2.78h1.66c.37 0 .66-.1.86-.3a1.01 1.01 0 0 0 .3-.74c0-.3-.1-.55-.3-.75s-.49-.3-.86-.3h-1.66v2.09zm7.05.78c-.49 0-.91-.08-1.25-.25-.35-.17-.62-.43-.81-.78s-.29-.79-.32-1.33l-.01-.73.01-.73c.02-.53.13-.97.33-1.32s.47-.62.82-.79.76-.26 1.22-.26c.47 0 .88.09 1.23.26s.63.44.83.79.31.79.33 1.32l.02.73-.02.73c-.02.53-.12.97-.31 1.33-.19.35-.46.61-.81.78-.35.16-.77.25-1.26.25zm0-.73c.44 0 .8-.13 1.08-.39s.43-.69.45-1.28l.02-.69-.02-.68c-.01-.4-.08-.72-.22-.96s-.31-.43-.54-.54c-.22-.12-.48-.17-.77-.17a1.73 1.73 0 0 0-.76.17c-.22.11-.4.29-.54.54-.13.25-.21.57-.23.96l-.01.68.01.69c.02.59.17 1.02.46 1.28s.64.39 1.07.39zm3.3.64c-.05 0-.09-.02-.12-.05s-.06-.07-.06-.12c0-.02 0-.04.01-.06s.02-.04.02-.05l1.97-2.77-1.87-2.67c-.02-.03-.03-.07-.03-.11 0-.05.02-.09.05-.12s.07-.05.12-.05h.52c.06 0 .1.01.14.04.03.03.07.06.09.11l1.51 2.15 1.5-2.15c.02-.05.05-.08.09-.11s.08-.04.13-.04h.49c.05 0 .09.02.12.05s.05.07.05.12c0 .04-.01.08-.03.11l-1.85 2.68 1.96 2.77c.01.01.02.03.03.05s.01.04.01.06c0 .05-.02.09-.05.12-.04.03-.08.05-.13.05h-.52c-.05 0-.1-.01-.13-.04a.9.9 0 0 1-.1-.09l-1.6-2.23-1.59 2.23c-.03.03-.06.07-.09.09-.03.03-.08.04-.14.04h-.5z"/></g><use xlink:href="#O" x="773.56" y="-0.39" class="k"/><g class="l"><path d="M808.76 547.02l-.17 8.64h.52l-.26-8.64z" class="j o r"/><g class="k p s"><use xlink:href="#P" x="773.56" y="-0.39"/><use xlink:href="#Q" x="773.57" y="-0.39"/><use xlink:href="#R" x="773.56" y="-0.39"/></g></g><use xlink:href="#S" x="773.56" y="-0.39" class="j"/><use xlink:href="#a" x="748.81" y="37.55" class="k"/><use xlink:href="#U" x="773.57" y="-0.38" class="j"/><use xlink:href="#b" x="24.75" y="-37.94" class="l m n q"/><g class="j"><use xlink:href="#j"/><path d="M718.25 525.03c-.53 0-.96-.1-1.31-.29s-.61-.47-.79-.82-.28-.76-.29-1.22l-.01-.76.01-.77c.02-.46.11-.87.29-1.22a1.95 1.95 0 0 1 .79-.82c.35-.19.78-.29 1.31-.29.4 0 .74.05 1.04.16s.55.25.74.44.35.39.45.61c.1.23.16.46.17.7.01.05-.01.09-.05.13s-.08.05-.13.05H720c-.05 0-.1-.01-.13-.04s-.06-.08-.08-.15c-.1-.45-.28-.75-.55-.92s-.6-.25-1-.25c-.46 0-.82.13-1.09.39s-.42.68-.44 1.25v1.44c.02.57.17.99.44 1.25s.63.39 1.09.39c.4 0 .73-.08 1-.25s.45-.47.55-.92c.02-.07.04-.12.08-.15s.08-.04.13-.04h.47a.19.19 0 0 1 .18.18c-.01.24-.07.47-.17.7a1.76 1.76 0 0 1-.45.61c-.2.18-.45.33-.74.44-.3.11-.65.17-1.04.17z"/><use xlink:href="#c" x="24.75" y="-37.94"/><use xlink:href="#d" x="24.75" y="-37.94"/><use xlink:href="#e" x="24.75" y="-37.94"/><use xlink:href="#f" x="24.75" y="-37.94"/></g><use xlink:href="#X" x="639.53" y="-37.94" class="k"/><g class="l"><path d="M727.65 509.34l-.16 8.64h.51l-.26-8.64z" class="j o r"/><g class="k p s"><use xlink:href="#P" x="692.45" y="-38.07"/><use xlink:href="#Q" x="692.46" y="-38.07"/><use xlink:href="#R" x="692.45" y="-38.07"/></g></g><use xlink:href="#S" x="692.46" y="-38.07" class="j"/><use xlink:href="#Y" x="639.53" y="-37.94" class="k"/><use xlink:href="#U" x="692.46" y="-38.07" class="j"/><path d="M804.86 531.87h-47.19a2.87 2.87 0 0 1-2.87-2.87v-31.2a2.87 2.87 0 0 1 2.87-2.87h47.19a2.87 2.87 0 0 1 2.87 2.87V529a2.87 2.87 0 0 1-2.87 2.87z" class="l m n q"/><g class="j"><path d="M764.01 524.81c-.06 0-.11-.02-.15-.06s-.05-.08-.05-.14V519c0-.06.02-.11.05-.15s.08-.06.15-.06h3.55c.06 0 .11.02.15.06.03.04.05.09.05.15v.33c0 .06-.02.11-.05.15-.04.03-.08.05-.15.05h-2.92v1.88h2.73c.06 0 .11.02.15.06s.05.09.05.15v.32c0 .06-.02.1-.05.14s-.08.06-.15.06h-2.73v1.95h2.99c.06 0 .11.02.15.05s.05.08.05.15v.33c0 .06-.02.1-.05.14s-.08.06-.15.06h-3.62z"/><use xlink:href="#g" x="24.75" y="-37.94"/><use xlink:href="#h" x="24.75" y="-37.94"/><path d="M782.85 524.81c-.06 0-.11-.02-.15-.06s-.05-.08-.05-.14V519c0-.06.02-.11.05-.15s.08-.06.15-.06h2.35c.43 0 .78.07 1.05.21s.47.33.6.57a1.67 1.67 0 0 1 .19.81c0 .24-.04.44-.12.61s-.17.31-.29.41c-.12.11-.23.19-.33.25.22.11.42.29.6.53s.26.54.26.89c0 .31-.07.6-.21.87-.14.26-.36.47-.64.63s-.63.24-1.05.24h-2.41zm.64-3.47h1.58c.37 0 .64-.08.83-.25s.28-.4.28-.69-.09-.52-.28-.67-.47-.23-.83-.23h-1.58v1.84zm0 2.78h1.66c.37 0 .66-.1.86-.3a1.01 1.01 0 0 0 .3-.74c0-.3-.1-.55-.3-.75s-.49-.3-.86-.3h-1.66v2.09zm7.05.78c-.49 0-.9-.08-1.25-.25s-.62-.43-.81-.78-.29-.79-.32-1.33l-.01-.73.01-.73c.02-.53.13-.97.33-1.32s.47-.62.82-.79.76-.26 1.22-.26c.47 0 .88.09 1.23.26s.63.44.83.79.31.79.33 1.32l.02.73-.02.73c-.02.53-.12.97-.31 1.33-.19.35-.46.61-.81.78-.34.16-.76.25-1.26.25zm0-.73c.44 0 .8-.13 1.08-.39s.43-.69.45-1.28l.02-.69-.02-.68c-.01-.4-.08-.72-.22-.96s-.31-.43-.54-.54c-.22-.12-.48-.17-.77-.17a1.73 1.73 0 0 0-.76.17c-.22.11-.4.29-.54.54-.13.25-.21.57-.23.96l-.01.68.01.69c.02.59.17 1.02.46 1.28s.64.39 1.07.39z"/><use xlink:href="#i" x="24.75" y="-37.94"/></g><use xlink:href="#O" x="745.39" y="-38.2" class="k"/><g class="l"><path d="M780.58 509.21l-.16 8.64h.51l-.26-8.64z" class="j o r"/><g class="k p s"><use xlink:href="#P" x="745.38" y="-38.2"/><use xlink:href="#Q" x="745.39" y="-38.2"/><use xlink:href="#R" x="745.38" y="-38.2"/></g></g><use xlink:href="#S" x="745.39" y="-38.2" class="j"/><use xlink:href="#a" x="720.63" y="-0.26" class="k"/><use xlink:href="#U" x="745.39" y="-38.19" class="j"/><path d="M778.39 495.07H731.2a2.87 2.87 0 0 1-2.87-2.87V461a2.87 2.87 0 0 1 2.87-2.87h47.19a2.87 2.87 0 0 1 2.87 2.87v31.2a2.87 2.87 0 0 1-2.87 2.87z" class="l m n q"/><g class="j"><use xlink:href="#j" x="26.46" y="-36.94"/><path d="M744.71 488.09c-.53 0-.96-.1-1.31-.29s-.61-.47-.79-.82-.28-.76-.29-1.22l-.01-.76.01-.77c.02-.46.11-.87.29-1.22a1.95 1.95 0 0 1 .79-.82c.35-.19.78-.29 1.31-.29.4 0 .74.05 1.04.16s.55.25.74.44.35.39.45.61c.1.23.16.46.17.7.01.05-.01.09-.05.13s-.08.05-.13.05h-.47c-.05 0-.1-.01-.13-.04s-.06-.08-.08-.15c-.1-.45-.28-.75-.55-.92s-.6-.25-1-.25c-.46 0-.82.13-1.09.39s-.42.68-.44 1.25v1.44c.02.57.17.99.44 1.25s.63.39 1.09.39c.4 0 .73-.08 1-.25s.45-.47.55-.92c.02-.07.04-.12.08-.15s.08-.04.13-.04h.47a.19.19 0 0 1 .18.18c-.01.24-.07.47-.17.7a1.76 1.76 0 0 1-.45.61c-.2.18-.45.33-.74.44-.29.12-.64.17-1.04.17zm5.71 0c-.49 0-.9-.08-1.25-.25s-.62-.43-.81-.78-.29-.79-.32-1.33l-.01-.73.01-.73c.02-.53.13-.97.33-1.32s.47-.62.82-.79.76-.26 1.22-.26c.47 0 .88.09 1.23.26s.63.44.83.79.31.79.33 1.32l.02.73-.02.73c-.02.53-.12.97-.31 1.33-.19.35-.46.61-.81.78-.34.17-.76.25-1.26.25zm0-.73c.44 0 .8-.13 1.08-.39s.43-.69.45-1.28l.02-.69-.02-.68c-.01-.4-.08-.72-.22-.96s-.31-.43-.54-.54c-.22-.12-.48-.17-.77-.17a1.73 1.73 0 0 0-.76.17c-.22.11-.4.29-.54.54-.13.25-.21.57-.23.96l-.01.68.01.69c.02.59.17 1.02.46 1.28s.64.39 1.07.39zm5.96.64c-.06 0-.11-.02-.15-.06s-.05-.08-.05-.14v-5.61c0-.06.02-.11.05-.15s.08-.06.15-.06h2.35c.43 0 .78.07 1.05.21s.47.33.6.57a1.67 1.67 0 0 1 .19.81c0 .24-.04.44-.12.61s-.17.31-.29.41c-.11.11-.23.19-.33.25.22.11.42.29.6.53s.26.54.26.89c0 .31-.07.6-.21.87-.14.26-.36.47-.64.63s-.63.24-1.05.24h-2.41zm.65-3.46h1.58c.37 0 .64-.08.83-.25s.28-.4.28-.69-.09-.52-.28-.67-.47-.23-.83-.23h-1.58v1.84zm0 2.77h1.66c.37 0 .66-.1.86-.3a1.01 1.01 0 0 0 .3-.74c0-.3-.1-.55-.3-.75s-.49-.3-.86-.3h-1.66v2.09zm7.05.78c-.49 0-.91-.08-1.25-.25-.35-.17-.62-.43-.81-.78s-.29-.79-.32-1.33l-.01-.73.01-.73c.02-.53.13-.97.33-1.32s.47-.62.82-.79.76-.26 1.22-.26c.47 0 .88.09 1.23.26s.63.44.83.79.31.79.33 1.32l.02.73-.02.73c-.02.53-.12.97-.31 1.33-.19.35-.46.61-.81.78s-.77.25-1.26.25zm0-.73c.44 0 .8-.13 1.08-.39s.43-.69.45-1.28l.02-.69-.02-.68c-.01-.4-.08-.72-.22-.96-.13-.25-.31-.43-.54-.54-.22-.12-.48-.17-.77-.17a1.73 1.73 0 0 0-.76.17c-.22.11-.4.29-.54.54s-.21.57-.23.96l-.01.68.01.69c.02.59.17 1.02.46 1.28s.64.39 1.07.39z"/><use xlink:href="#f" x="51.22" y="-74.88"/></g><use xlink:href="#O" x="718.92" y="-75.01" class="k"/><g class="l"><path d="M754.12 472.41l-.17 8.63h.52l-.26-8.63z" class="j o r"/><g class="k p s"><use xlink:href="#P" x="718.92" y="-75.01"/><use xlink:href="#Q" x="718.93" y="-75"/><use xlink:href="#R" x="718.92" y="-75"/></g></g><use xlink:href="#S" x="718.92" y="-75.01" class="j"/><use xlink:href="#a" x="694.17" y="-37.06" class="k"/><use xlink:href="#U" x="718.93" y="-75" class="j"/><defs ><path id="I" d="M116.12 437.9h29.03v157.92h-29.03z"/><path id="J" d="M18.62 563.01c-.06 0-.11-.02-.15-.06-.03-.04-.05-.08-.05-.14v-5.61c0-.06.02-.11.05-.15s.08-.06.15-.06h3.55c.06 0 .11.02.15.06.03.04.05.09.05.15v.33c0 .06-.02.11-.05.15-.03.03-.08.05-.15.05h-2.92v1.88h2.73c.06 0 .11.02.15.06.03.04.05.09.05.15v.32c0 .06-.02.1-.05.14s-.08.06-.15.06h-2.73v1.95h2.99c.06 0 .11.02.15.05.03.03.05.08.05.15v.33c0 .06-.02.1-.05.14s-.08.06-.15.06h-3.62z"/><path id="K" d="M25.79 563.1c-.53 0-.96-.1-1.31-.29s-.61-.47-.79-.82-.27-.76-.29-1.22l-.01-.76.01-.77c.02-.46.11-.87.29-1.22a1.95 1.95 0 0 1 .79-.82c.35-.19.78-.29 1.31-.29.4 0 .74.05 1.04.16s.55.25.74.44c.2.18.35.39.45.61.1.23.16.46.17.7.01.05-.01.09-.05.13s-.08.05-.13.05h-.47c-.05 0-.1-.01-.13-.04-.04-.03-.06-.08-.08-.15-.1-.45-.28-.75-.55-.92s-.6-.25-1-.25c-.46 0-.82.13-1.09.39s-.42.68-.44 1.25v1.44c.02.57.17.99.44 1.25s.63.39 1.09.39c.4 0 .73-.08 1-.25s.45-.47.55-.92c.02-.07.04-.12.08-.15s.08-.04.13-.04h.47a.19.19 0 0 1 .18.18c-.01.24-.07.47-.17.7a1.76 1.76 0 0 1-.45.61c-.2.18-.45.33-.74.44-.3.11-.64.17-1.04.17z"/><path id="L" d="M37.46 563.01c-.06 0-.11-.02-.15-.06-.03-.04-.05-.08-.05-.14v-5.61c0-.06.02-.11.05-.15s.08-.06.15-.06h2.35c.43 0 .78.07 1.05.21s.47.33.6.57a1.67 1.67 0 0 1 .19.81c0 .24-.04.44-.12.61s-.17.31-.29.41c-.11.11-.23.19-.33.25.22.11.42.29.6.53s.26.54.26.89c0 .31-.07.6-.21.87s-.36.47-.64.63-.63.24-1.05.24h-2.41zm.65-3.47h1.58c.37 0 .64-.08.83-.25s.28-.4.28-.69-.09-.52-.28-.67-.47-.23-.83-.23h-1.58v1.84zm0 2.78h1.66c.37 0 .66-.1.86-.3a1.01 1.01 0 0 0 .3-.74c0-.3-.1-.55-.3-.75s-.49-.3-.86-.3h-1.66v2.09z"/><path id="M" d="M45.16 563.1c-.49 0-.9-.08-1.25-.25s-.62-.43-.81-.78-.29-.79-.32-1.33l-.01-.73.01-.73c.02-.53.13-.97.33-1.32s.47-.62.82-.79.76-.26 1.22-.26c.47 0 .88.09 1.23.26s.63.44.83.79.31.79.33 1.32l.02.73-.02.73c-.02.53-.12.97-.31 1.33-.19.35-.46.61-.81.78-.35.16-.77.25-1.26.25zm0-.73c.44 0 .8-.13 1.08-.39s.43-.69.45-1.28l.02-.69-.02-.68c-.01-.4-.08-.72-.22-.96-.13-.25-.31-.43-.54-.54-.22-.12-.48-.17-.77-.17a1.73 1.73 0 0 0-.76.17c-.22.11-.4.29-.54.54-.13.25-.21.57-.23.96l-.01.68.01.69c.02.59.17 1.02.46 1.28.28.26.64.39 1.07.39z"/><path id="N" d="M48.45 563.01c-.05 0-.09-.02-.12-.05-.04-.03-.06-.07-.06-.12 0-.02 0-.04.01-.06s.02-.04.02-.05l1.97-2.77-1.87-2.67c-.02-.03-.03-.07-.03-.11 0-.05.02-.09.05-.12s.07-.05.12-.05h.52c.06 0 .1.01.14.04.03.03.07.06.09.11l1.51 2.15 1.5-2.15c.02-.05.05-.08.09-.11s.08-.04.13-.04h.49c.05 0 .09.02.12.05s.05.07.05.12c0 .04-.01.08-.03.11l-1.85 2.68 1.96 2.77c.01.01.02.03.03.05s.01.04.01.06c0 .05-.02.09-.05.12a.19.19 0 0 1-.13.05h-.52c-.05 0-.1-.01-.13-.04a.9.9 0 0 1-.1-.09l-1.6-2.23-1.59 2.23c-.03.03-.06.07-.09.09s-.08.04-.14.04h-.5z"/><path id="O" d="M35.34 552.08l.25-.12s-.43-.84 1.05-1.99 2.43-1.19 3.89-1.19c1.45 0 2.56.55 2.56.55s-.94.52-1.44.92c-.45.36-1.81 1.66-2.67 1.98-.9.34-1.46.41-1.83.4-.32 0-.97-.01-1.41-.55l-.35.15-.05-.15z"/><path id="P" d="M35.22 547.41l-3.78-1.78-.01-4.85 3.79 1.56.01 5.06z"/><path id="Q" d="M39.02 545.63l-3.78 1.78-.01-5.06 3.79-1.58v4.86z"/><path id="R" d="M35.24 539.34l3.77 1.45-3.77 1.58-3.81-1.55 3.81-1.48z"/><path id="S" d="M35.47 552.12c-.01 0 1.47-1.41 3.86-2.15 2.3-.71 3.04-.64 3.04-.64s-1.7-.08-3.49.67-2.32 1.18-2.71 1.5l-.72.57.02.05z"/><path id="T" d="M35.16 549.91l-.25-.12s.43-.84-1.05-1.99-2.43-1.19-3.89-1.19-2.56.55-2.56.55.94.52 1.44.92c.45.36 1.81 1.66 2.67 1.98.9.34 1.46.41 1.83.4.32 0 .97-.01 1.41-.55l.35.15.05-.15z"/><path id="U" d="M35.03 549.95c.01 0-1.47-1.41-3.86-2.15-2.3-.71-3.04-.64-3.04-.64s1.7-.08 3.49.67 2.32 1.18 2.71 1.5l.72.57-.02.05z"/><path id="V" d="M84.43 562.97c-.49 0-.9-.08-1.25-.25s-.62-.43-.81-.78-.29-.79-.32-1.33l-.01-.73.01-.73c.02-.53.13-.97.33-1.32s.47-.62.82-.79.76-.26 1.22-.26c.47 0 .88.09 1.23.26s.63.44.83.79.31.79.33 1.32l.02.73-.02.73c-.02.53-.12.97-.31 1.33-.19.35-.46.61-.81.78-.35.16-.77.25-1.26.25zm0-.73c.44 0 .8-.13 1.08-.39s.43-.69.45-1.28l.02-.69-.02-.68c-.01-.4-.08-.72-.22-.96-.13-.25-.31-.43-.54-.54-.22-.12-.48-.17-.77-.17a1.73 1.73 0 0 0-.76.17c-.22.11-.4.29-.54.54-.13.25-.21.57-.23.96l-.01.68.01.69c.02.59.17 1.02.46 1.28s.64.39 1.07.39z"/><path id="W" d="M101.38 562.88c-.05 0-.09-.02-.12-.05-.04-.03-.06-.07-.06-.12 0-.02 0-.04.01-.06s.02-.04.02-.05l1.97-2.77-1.87-2.67c-.02-.03-.03-.07-.03-.11 0-.05.02-.09.05-.12s.07-.05.12-.05h.52c.06 0 .1.01.14.04.03.03.07.06.09.11l1.51 2.15 1.5-2.15c.02-.05.05-.08.09-.11s.08-.04.13-.04h.49c.05 0 .09.02.12.05s.05.07.05.12c0 .04-.01.08-.03.11l-1.85 2.68 1.96 2.77c.01.01.02.03.03.05s.01.04.01.06c0 .05-.02.09-.05.12a.19.19 0 0 1-.13.05h-.52c-.05 0-.1-.01-.13-.04-.04-.03-.07-.06-.1-.09l-1.6-2.23-1.59 2.23c-.03.03-.06.07-.09.09s-.08.04-.14.04h-.5z"/><path id="X" d="M88.27 551.95l.25-.12s-.43-.84 1.05-1.99c1.48-1.16 2.43-1.19 3.89-1.19 1.45 0 2.56.55 2.56.55s-.94.52-1.44.92c-.45.36-1.81 1.66-2.67 1.98-.9.34-1.46.41-1.83.4-.32 0-.97-.01-1.41-.55l-.35.15-.05-.15z"/><path id="Y" d="M88.09 549.78l-.25-.12s.43-.84-1.05-1.99c-1.48-1.16-2.43-1.19-3.89-1.19-1.45 0-2.56.55-2.56.55s.94.52 1.44.92c.45.36 1.81 1.66 2.67 1.98.9.34 1.46.41 1.83.4.32 0 .97-.01 1.41-.55l.35.15.05-.15z"/><path id="Z" d="M141.02 549.65l-.25-.12s.43-.84-1.05-1.99c-1.48-1.16-2.43-1.19-3.89-1.19s-2.56.55-2.56.55.94.52 1.44.92c.45.36 1.81 1.66 2.67 1.98.9.34 1.46.41 1.83.4.32 0 .97-.01 1.41-.55l.35.15.05-.15z"/><path id="a" d="M59.92 511.97l-.25-.12s.43-.84-1.05-1.99-2.43-1.19-3.89-1.19c-1.45 0-2.56.55-2.56.55s.94.52 1.44.92c.45.36 1.81 1.66 2.67 1.98.9.34 1.46.41 1.83.4.32 0 .97-.01 1.41-.55l.35.15.05-.15z"/><path id="b" d="M727.18 569.94h-47.19a2.87 2.87 0 0 1-2.87-2.87v-31.2a2.87 2.87 0 0 1 2.87-2.87h47.19a2.87 2.87 0 0 1 2.87 2.87v31.2a2.87 2.87 0 0 1-2.87 2.87z"/><path id="c" d="M699.21 562.97c-.49 0-.9-.08-1.25-.25s-.62-.43-.81-.78-.29-.79-.32-1.33l-.01-.73.01-.73c.02-.53.13-.97.33-1.32s.47-.62.82-.79.76-.26 1.22-.26c.47 0 .88.09 1.23.26s.63.44.83.79.31.79.33 1.32l.02.73-.02.73c-.02.53-.12.97-.31 1.33-.19.35-.46.61-.81.78-.35.16-.77.25-1.26.25zm0-.73c.44 0 .8-.13 1.08-.39s.43-.69.45-1.28l.02-.69-.02-.68c-.01-.4-.08-.72-.22-.96s-.31-.43-.54-.54c-.22-.12-.48-.17-.77-.17a1.73 1.73 0 0 0-.76.17c-.22.11-.4.29-.54.54-.13.25-.21.57-.23.96l-.01.68.01.69c.02.59.17 1.02.46 1.28.28.26.64.39 1.07.39z"/><path id="d" d="M705.17 562.88c-.06 0-.11-.02-.15-.06s-.05-.08-.05-.14v-5.61c0-.06.02-.11.05-.15s.08-.06.15-.06h2.35c.43 0 .78.07 1.05.21s.47.33.6.57a1.67 1.67 0 0 1 .19.81c0 .24-.04.44-.12.61s-.17.31-.29.41c-.11.11-.23.19-.33.25.22.11.42.29.6.53s.26.54.26.89c0 .31-.07.6-.21.87-.14.26-.36.47-.64.63s-.63.24-1.05.24h-2.41zm.64-3.47h1.58c.37 0 .64-.08.83-.25s.28-.4.28-.69-.09-.52-.28-.67-.47-.23-.83-.23h-1.58v1.84zm0 2.78h1.66c.37 0 .66-.1.86-.3a1.01 1.01 0 0 0 .3-.74c0-.3-.1-.55-.3-.75s-.49-.3-.86-.3h-1.66v2.09z"/><path id="e" d="M712.86 562.97c-.49 0-.91-.08-1.25-.25-.35-.17-.62-.43-.81-.78s-.29-.79-.32-1.33l-.01-.73.01-.73c.02-.53.13-.97.33-1.32s.47-.62.82-.79.76-.26 1.22-.26c.47 0 .88.09 1.23.26s.63.44.83.79.31.79.33 1.32l.02.73-.02.73c-.02.53-.12.97-.31 1.33-.19.35-.46.61-.81.78-.34.16-.76.25-1.26.25zm0-.73c.44 0 .8-.13 1.08-.39s.43-.69.45-1.28l.02-.69-.02-.68c-.01-.4-.08-.72-.22-.96-.13-.25-.31-.43-.54-.54-.22-.12-.48-.17-.77-.17a1.73 1.73 0 0 0-.76.17c-.22.11-.4.29-.54.54s-.21.57-.23.96l-.01.68.01.69c.02.59.17 1.02.46 1.28s.64.39 1.07.39z"/><path id="f" d="M716.16 562.88c-.05 0-.09-.02-.12-.05s-.06-.07-.06-.12c0-.02 0-.04.01-.06s.02-.04.02-.05l1.97-2.77-1.87-2.67c-.02-.03-.03-.07-.03-.11 0-.05.02-.09.05-.12s.07-.05.12-.05h.52c.06 0 .1.01.14.04.03.03.07.06.09.11l1.51 2.15 1.5-2.15c.02-.05.05-.08.09-.11s.08-.04.13-.04h.49c.05 0 .09.02.12.05s.05.07.05.12c0 .04-.01.08-.03.11l-1.85 2.68 1.96 2.77c.01.01.02.03.03.05s.01.04.01.06c0 .05-.02.09-.05.12a.19.19 0 0 1-.13.05h-.52c-.05 0-.1-.01-.13-.04a.9.9 0 0 1-.1-.09l-1.6-2.23-1.59 2.23c-.03.03-.06.07-.09.09s-.08.04-.14.04h-.5z"/><path id="g" d="M746.43 562.84c-.53 0-.96-.1-1.31-.29s-.61-.47-.79-.82-.27-.76-.29-1.22l-.01-.76.01-.77c.02-.46.11-.87.29-1.22a1.95 1.95 0 0 1 .79-.82c.35-.19.78-.29 1.31-.29a3.03 3.03 0 0 1 1.04.16 2.08 2.08 0 0 1 .74.44c.2.18.35.39.45.61.1.23.16.46.17.7.01.05-.01.09-.05.13s-.08.05-.13.05h-.47c-.05 0-.1-.01-.13-.04-.04-.03-.06-.08-.08-.15-.1-.45-.28-.75-.54-.92-.27-.17-.6-.25-1-.25-.46 0-.82.13-1.09.39s-.42.68-.44 1.25v1.44c.02.57.17.99.44 1.25s.63.39 1.09.39c.4 0 .73-.08 1-.25s.45-.47.54-.92c.02-.07.04-.12.08-.15s.08-.04.13-.04h.47a.19.19 0 0 1 .18.18c-.01.24-.07.47-.17.7a1.76 1.76 0 0 1-.45.61c-.2.18-.45.33-.74.44s-.65.17-1.04.17z"/><path id="h" d="M752.14 562.84c-.49 0-.91-.08-1.25-.25-.35-.17-.62-.43-.81-.78s-.29-.79-.32-1.33l-.01-.73.01-.73c.02-.53.13-.97.33-1.32s.47-.62.82-.79.76-.26 1.22-.26c.47 0 .88.09 1.23.26s.63.44.83.79.31.79.33 1.32l.02.73-.02.73c-.02.53-.12.97-.31 1.33-.19.35-.46.61-.81.78-.35.16-.77.25-1.26.25zm0-.73c.44 0 .8-.13 1.08-.39s.43-.69.45-1.28l.02-.69-.02-.68c-.01-.4-.08-.72-.22-.96-.13-.25-.31-.43-.54-.54-.22-.12-.48-.17-.77-.17a1.73 1.73 0 0 0-.76.17c-.22.11-.4.29-.54.54s-.21.57-.23.96l-.01.68.01.69c.02.59.17 1.02.46 1.28s.64.39 1.07.39z"/><path id="i" d="M769.09 562.75c-.05 0-.09-.02-.12-.05-.04-.03-.06-.07-.06-.12 0-.02 0-.04.01-.06s.02-.04.02-.05l1.97-2.77-1.87-2.67c-.02-.03-.03-.07-.03-.11 0-.05.02-.09.05-.12s.07-.05.12-.05h.51c.06 0 .1.01.14.04.03.03.07.06.09.11l1.51 2.15 1.5-2.15c.02-.05.05-.08.09-.11s.08-.04.13-.04h.49c.05 0 .09.02.12.05.04.03.05.07.05.12 0 .04-.01.08-.03.11l-1.85 2.68 1.96 2.77c.01.01.02.03.03.05s.01.04.01.06c0 .05-.02.09-.05.12a.19.19 0 0 1-.13.05h-.52c-.05 0-.1-.01-.13-.04s-.07-.06-.1-.09l-1.6-2.23-1.59 2.23c-.03.03-.06.07-.09.09s-.08.04-.14.04h-.49z"/><path id="j" d="M711.08 524.94c-.06 0-.11-.02-.15-.06s-.05-.08-.05-.14v-5.61c0-.06.02-.11.05-.15s.08-.06.15-.06h3.55c.06 0 .11.02.15.06.03.04.05.09.05.15v.33c0 .06-.02.11-.05.15s-.08.05-.15.05h-2.92v1.88h2.73c.06 0 .11.02.15.06.03.04.05.09.05.15v.32c0 .06-.02.1-.05.14-.04.04-.08.06-.15.06h-2.73v1.95h2.99c.06 0 .11.02.15.05s.05.08.05.15v.33c0 .06-.02.1-.05.14s-.08.06-.15.06h-3.62z"/></defs></svg>