<?xml version="1.0" encoding="UTF-8"?><svg id="Laag_1" xmlns="http://www.w3.org/2000/svg" viewBox="0 0 160.73 172.95"><defs><style>.cls-1{stroke:#063;stroke-width:1.82px;}.cls-1,.cls-2{fill:#3aaa35;}.cls-1,.cls-3{stroke-miterlimit:10;}.cls-3{stroke:#3aaa35;stroke-width:1.3px;}.cls-3,.cls-4{fill:#063;}</style></defs><path class="cls-2" d="M81.26,131.57l2.55-1.2s-4.43-8.57,10.73-20.43c15.15-11.86,24.98-12.26,39.89-12.26s26.31,5.68,26.31,5.68c0,0-9.6,5.34-14.79,9.47-4.65,3.69-18.57,17.02-27.4,20.33-9.23,3.45-15.02,4.18-18.75,4.14-3.27-.04-9.98-.05-14.47-5.64l-3.62,1.49-.44-1.59Z"/><polygon class="cls-3" points="79.78 83.71 78.08 172.3 83.36 172.3 80.72 83.71 79.78 83.71"/><path class="cls-1" d="M80.01,83.7l-38.76-18.25s-.05-.05-.05-.08V15.74c0-.07,.08-.11,.14-.08l38.76,16.06s.06,.05,.06,.08v51.81c0,.07-.08,.11-.15,.08Z"/><path class="cls-1" d="M119.07,65.44l-38.76,18.25c-.07,.03-.15-.01-.15-.08V31.8s.02-.07,.06-.08L118.98,15.66c.07-.03,.14,.02,.14,.08v49.62s-.02,.07-.05,.08Z"/><path class="cls-1" d="M80.2,.92l38.71,14.9c.08,.03,.08,.13,0,.17l-38.71,16.04s-.06,.01-.08,0l-38.97-15.94c-.08-.03-.08-.14,0-.17L80.12,.92s.05,0,.08,0Z"/><path class="cls-4" d="M82.59,132.01c-.06,.03,15.09-14.49,39.56-22.02,23.63-7.27,31.17-6.62,31.17-6.62,0,0-17.39-.8-35.78,6.9-18.39,7.7-23.79,12.06-27.83,15.42-4.04,3.36-7.34,5.87-7.34,5.87l.21,.44Z"/><path class="cls-2" d="M79.47,109.35l-2.55-1.2s4.43-8.57-10.73-20.43c-15.15-11.86-24.98-12.26-39.89-12.26-14.91,0-26.31,5.68-26.31,5.68,0,0,9.6,5.34,14.79,9.47,4.65,3.69,18.57,17.02,27.4,20.33,9.23,3.45,15.02,4.18,18.75,4.14,3.27-.04,9.98-.05,14.47-5.64l3.62,1.49,.44-1.59Z"/><path class="cls-4" d="M78.14,109.79c.06,.03-15.09-14.49-39.56-22.02-23.63-7.27-31.17-6.62-31.17-6.62,0,0,17.39-.8,35.78,6.9,18.39,7.7,23.79,12.06,27.83,15.42s7.34,5.87,7.34,5.87l-.21,.44Z"/></svg>